<svg width="76" height="77" viewBox="0 0 76 77" fill="none" xmlns="http://www.w3.org/2000/svg">
<path d="M6.21126 52.7629C7.08571 52.7629 7.7946 52.054 7.7946 51.1796C7.7946 50.3051 7.08571 49.5962 6.21126 49.5962C5.33681 49.5962 4.62793 50.3051 4.62793 51.1796C4.62793 52.054 5.33681 52.7629 6.21126 52.7629Z" fill="white"/>
<path fill-rule="evenodd" clip-rule="evenodd" d="M14.0647 42.5045C11.9134 43.314 9.96406 44.5821 8.35199 46.2206C8.07105 46.5225 7.91887 46.922 7.92775 47.3343C7.93663 47.7466 8.10587 48.1393 8.39954 48.4288C8.69321 48.7183 9.08818 48.882 9.50057 48.8851C9.91297 48.8881 10.3103 48.7303 10.6082 48.4451C12.8977 46.124 16.047 44.6879 19.5224 44.6879C26.5255 44.6879 32.1954 50.5146 32.1954 57.6681C32.1954 58.74 31.2913 59.4841 30.0737 60.127C27.5182 61.4776 23.5156 62.1141 19.5224 62.1141C15.5292 62.1141 11.5266 61.4776 8.97107 60.127C7.75349 59.4841 6.8494 58.74 6.8494 57.6681C6.8494 57.0949 6.88582 56.5312 6.95549 55.9771C7.00861 55.5603 6.89399 55.1395 6.63684 54.8072C6.3797 54.4749 6.0011 54.2584 5.58432 54.2053C5.16754 54.1522 4.74673 54.2668 4.41447 54.524C4.0822 54.7811 3.86569 55.1597 3.81257 55.5765C3.72549 56.2621 3.68115 56.9603 3.68115 57.6681C3.68115 59.8135 5.0539 61.6391 7.49065 62.9279C10.4087 64.4701 14.9624 65.2823 19.5224 65.2823C24.0824 65.2823 28.6361 64.4701 31.5542 62.9279C33.9909 61.6391 35.3637 59.8135 35.3637 57.6681C35.3637 50.7046 31.0348 44.7734 24.9802 42.5045C25.7592 41.766 26.3795 40.8765 26.8031 39.8902C27.2267 38.9038 27.4447 37.8415 27.4438 36.7681C27.4438 32.3949 23.894 28.8466 19.5224 28.8466C15.1508 28.8466 11.6026 32.3949 11.6026 36.7681C11.6026 39.0243 12.5478 41.0621 14.0647 42.5045ZM19.5224 32.0149C20.7568 32.0539 21.9276 32.5717 22.787 33.4587C23.6463 34.3457 24.1269 35.5322 24.1269 36.7673C24.1269 38.0023 23.6463 39.1889 22.787 40.0758C21.9276 40.9628 20.7568 41.4806 19.5224 41.5196C18.288 41.4806 17.1172 40.9628 16.2578 40.0758C15.3985 39.1889 14.9179 38.0023 14.9179 36.7673C14.9179 35.5322 15.3985 34.3457 16.2578 33.4587C17.1172 32.5717 18.288 32.0539 19.5224 32.0149ZM52.0837 47.2576C46.0306 49.5266 41.7002 55.4561 41.7002 62.4212C41.7002 64.5651 43.0729 66.3922 45.5097 67.6795C48.4277 69.2232 52.9814 70.0339 57.5414 70.0339C62.1014 70.0339 66.6551 69.2232 69.5732 67.6795C72.0099 66.3922 73.3827 64.5651 73.3827 62.4212C73.3827 55.4561 69.0538 49.5266 62.9992 47.2576C63.7784 46.519 64.3988 45.6292 64.8224 44.6426C65.2461 43.656 65.464 42.5933 65.4628 41.5196C65.4628 37.1481 61.913 33.5998 57.5414 33.5998C53.1698 33.5998 49.6216 37.1465 49.6216 41.5196C49.6216 43.7775 50.5668 45.8136 52.0837 47.2576ZM57.5414 49.4411C64.5445 49.4411 70.2144 55.2677 70.2144 62.4212C70.2144 63.4931 69.3103 64.2357 68.0927 64.8786C65.5372 66.2307 61.5346 66.8656 57.5414 66.8656C53.5482 66.8656 49.5456 66.2307 46.9901 64.8786C45.7725 64.2357 44.8684 63.4931 44.8684 62.4212C44.8684 55.2661 50.5367 49.4411 57.5414 49.4411ZM57.5414 36.7681C58.7758 36.8071 59.9466 37.3249 60.806 38.2119C61.6653 39.0989 62.1459 40.2854 62.1459 41.5204C62.1459 42.7555 61.6653 43.942 60.806 44.829C59.9466 45.716 58.7758 46.2338 57.5414 46.2728C56.307 46.2338 55.1362 45.716 54.2768 44.829C53.4175 43.942 52.9369 42.7555 52.9369 41.5204C52.9369 40.2854 53.4175 39.0989 54.2768 38.2119C55.1362 37.3249 56.307 36.8071 57.5414 36.7681ZM32.9871 22.5101V24.8851C32.9869 25.4054 33.0892 25.9207 33.2882 26.4014C33.4872 26.8821 33.779 27.3189 34.1469 27.6868C34.5148 28.0547 34.9516 28.3465 35.4323 28.5455C35.913 28.7445 36.4283 28.8469 36.9486 28.8466H48.3486L52.7027 31.7489C52.9412 31.908 53.2184 31.9994 53.5047 32.0133C53.791 32.0272 54.0757 31.9631 54.3284 31.8279C54.5812 31.6926 54.7925 31.4913 54.9398 31.2454C55.0871 30.9995 55.1649 30.7182 55.1648 30.4316V23.3018C55.1648 22.8819 54.998 22.4792 54.7011 22.1822C54.4041 21.8853 54.0014 21.7185 53.5815 21.7185C53.1616 21.7185 52.7588 21.8853 52.4619 22.1822C52.165 22.4792 51.9981 22.8819 51.9981 23.3018V27.4707L49.7087 25.9444C49.448 25.7706 49.1416 25.678 48.8283 25.6784H36.9486C36.7381 25.6785 36.536 25.5954 36.3865 25.4472C36.2387 25.2981 36.1556 25.0967 36.1553 24.8867V22.5101H40.1168C41.1668 22.5097 42.1736 22.0923 42.9159 21.3497C43.6582 20.6072 44.0752 19.6002 44.0752 18.5502V16.1721H51.2049C51.4155 16.1721 51.6166 16.256 51.7654 16.4032C51.9132 16.5524 51.9963 16.7538 51.9966 16.9637V18.5471C51.9966 18.9672 52.1635 19.3701 52.4606 19.6672C52.7576 19.9643 53.1606 20.1312 53.5807 20.1312C54.0008 20.1312 54.4038 19.9643 54.7008 19.6672C54.9979 19.3701 55.1648 18.9672 55.1648 18.5471V16.9637C55.1644 15.9138 54.747 14.9069 54.0044 14.1647C53.2618 13.4224 52.2549 13.0054 51.2049 13.0054H44.0767V10.6304C44.0769 10.1102 43.9747 9.59513 43.7758 9.11451C43.5768 8.63389 43.2852 8.19716 42.9175 7.82928C42.5497 7.4614 42.1131 7.16958 41.6326 6.97047C41.152 6.77137 40.637 6.66889 40.1168 6.66889H25.8589C24.8087 6.66889 23.8014 7.0861 23.0588 7.82872C22.3162 8.57135 21.899 9.57857 21.899 10.6288V24.0951C21.8988 24.382 21.9765 24.6635 22.1239 24.9097C22.2712 25.1558 22.4827 25.3573 22.7357 25.4926C22.9887 25.6279 23.2737 25.6919 23.5603 25.6778C23.8469 25.6636 24.1242 25.5719 24.3627 25.4124L28.7152 22.5101H32.9871ZM40.9085 10.6288V18.5502C40.9085 18.7608 40.8246 18.9619 40.6773 19.1107C40.5282 19.2585 40.3268 19.3416 40.1168 19.3419H28.2355C27.9222 19.3415 27.6158 19.4341 27.3552 19.6079L25.0672 21.1342V10.6288C25.0672 10.4182 25.1512 10.2171 25.2984 10.0683C25.4475 9.92051 25.6489 9.83746 25.8589 9.83714H40.1168C40.3274 9.83714 40.5285 9.92106 40.6773 10.0683C40.8251 10.2175 40.9082 10.4188 40.9085 10.6288Z" fill="white"/>
</svg>
