<svg width="70" height="71" viewBox="0 0 70 71" fill="none" xmlns="http://www.w3.org/2000/svg">
<g clip-path="url(#clip0_451_688)">
<path d="M46.8254 45.6049C46.6619 45.7064 46.5269 45.8479 46.4333 46.016C46.3397 46.1841 46.2905 46.3733 46.2903 46.5658V62.3722C46.2905 62.5647 46.3397 62.7539 46.4333 62.922C46.5269 63.0901 46.6619 63.2316 46.8254 63.3331C46.9892 63.434 47.176 63.4916 47.3682 63.5002C47.5604 63.5089 47.7517 63.4685 47.9239 63.3827L63.7304 55.4796C64.1131 55.2876 64.3548 54.897 64.3548 54.4691C64.3548 54.0411 64.1132 53.6505 63.7304 53.4586L47.9239 45.5553C47.7518 45.4693 47.5605 45.4287 47.3682 45.4374C47.176 45.4461 46.9891 45.5038 46.8254 45.6049ZM48.5483 48.3925L60.7013 54.4689L48.5483 60.5454V48.3925Z" fill="white"/>
<path d="M66.6129 31.8883C68.4804 31.8883 70 30.3687 70 28.5012V8.17855C70 6.31111 68.4804 4.79148 66.6129 4.79148H58.7098V3.66246C58.7096 1.79502 57.19 0.275391 55.3226 0.275391H7.90316C6.03586 0.275391 4.51609 1.79502 4.51609 3.66246V40.9205H3.38707C1.51963 40.9205 0 42.4403 0 44.3077V66.8883C0 68.7558 1.51963 70.2754 3.38707 70.2754H30.4839C32.3513 70.2754 33.871 68.7558 33.871 66.8883V54.4689H38.3871C38.3871 63.185 45.4774 70.2754 54.1935 70.2754C62.9096 70.2754 70 63.185 70 54.4689C70 47.3233 65.2299 41.2773 58.7096 39.3286V31.8882L66.6129 31.8883ZM67.742 8.17855V28.5011C67.742 29.1243 67.235 29.6301 66.6129 29.6301H57.0161L53.9666 33.6957C53.5432 34.2603 52.5846 34.2603 52.1612 33.6957L49.1128 29.6301H39.516C38.8939 29.6301 38.3869 29.1243 38.3869 28.5011V8.17855C38.3869 7.55539 38.8939 7.04953 39.516 7.04953H66.6128C67.235 7.04953 67.742 7.55539 67.742 8.17855ZM7.90316 2.53344H55.3226C55.9446 2.53344 56.4516 3.0393 56.4516 3.66246V4.79148H39.5161C37.6487 4.79148 36.129 6.31111 36.129 8.17855V9.30758H6.77414V3.66246C6.77414 3.0393 7.28109 2.53344 7.90316 2.53344ZM6.77414 11.5658H18.0645V40.9206H6.77414V11.5658ZM31.6129 66.8883C31.6129 67.5115 31.106 68.0173 30.4839 68.0173H3.38707C2.765 68.0173 2.25805 67.5115 2.25805 66.8883V44.3077C2.25805 43.6846 2.765 43.1787 3.38707 43.1787H30.4839C31.106 43.1787 31.6129 43.6846 31.6129 44.3077V66.8883ZM67.742 54.4689C67.742 61.9398 61.6644 68.0173 54.1935 68.0173C46.7227 68.0173 40.6451 61.9398 40.6451 54.4689C40.6451 46.9981 46.7227 40.9205 54.1935 40.9205C61.6644 40.9205 67.742 46.9981 67.742 54.4689ZM54.1935 38.6625C46.2462 38.6625 39.6685 44.5639 38.5677 52.2109H33.8708V44.3077C33.8708 42.4403 32.3512 40.9206 30.4838 40.9206H20.3224V11.5658H36.1289V28.5012C36.1289 30.3687 37.6485 31.8883 39.516 31.8883H47.9836L50.3546 35.0508C50.9902 35.8987 52.0041 36.4044 53.0642 36.4044C54.1256 36.4044 55.1383 35.8986 55.7728 35.0508L56.4513 34.1464V38.8432C55.7121 38.7359 54.9624 38.6625 54.1935 38.6625Z" fill="white"/>
<path d="M40.7761 24.5134C40.8723 24.695 41.0161 24.8468 41.1922 24.9526C41.3682 25.0585 41.5698 25.1143 41.7753 25.114C41.9591 25.1142 42.1402 25.0692 42.3026 24.9831L52.4367 19.6179L56.5848 21.8139C56.5047 22.1493 56.4516 22.4959 56.4516 22.856C56.4516 25.3466 58.4771 27.3721 60.9677 27.3721C63.4583 27.3721 65.4838 25.3466 65.4838 22.856C65.4838 20.3654 63.4583 18.3399 60.9677 18.3399C59.6501 18.3399 58.4726 18.9169 57.6461 19.82L54.8495 18.3399L57.6461 16.8598C58.4726 17.7629 59.6501 18.3399 60.9677 18.3399C63.4583 18.3399 65.4838 16.3144 65.4838 13.8238C65.4838 11.3332 63.4583 9.30771 60.9677 9.30771C58.4771 9.30771 56.4516 11.3332 56.4516 13.8238C56.4516 14.1839 56.5047 14.5306 56.5848 14.8659L52.4367 17.0619L42.3026 11.6967C41.7516 11.4032 41.0686 11.6166 40.7761 12.1664C40.6362 12.4311 40.6071 12.7406 40.6951 13.0268C40.7832 13.313 40.9812 13.5525 41.2457 13.6928L50.0239 18.3399L41.2457 22.987C40.9812 23.1273 40.7832 23.3668 40.6951 23.653C40.6071 23.9392 40.6362 24.2487 40.7761 24.5134ZM60.9677 20.5979C62.2131 20.5979 63.2257 21.6106 63.2257 22.856C63.2257 24.1014 62.2131 25.114 60.9677 25.114C59.7223 25.114 58.7096 24.1014 58.7096 22.856C58.7096 21.6106 59.7225 20.5979 60.9677 20.5979ZM60.9677 11.5658C62.2131 11.5658 63.2257 12.5784 63.2257 13.8238C63.2257 15.0692 62.2131 16.0819 60.9677 16.0819C59.7223 16.0819 58.7096 15.0692 58.7096 13.8238C58.7096 12.5784 59.7225 11.5658 60.9677 11.5658ZM18.0645 4.79148H20.3226V7.04953H18.0645V4.79148ZM9.03234 4.79148H11.2904V7.04953H9.03234V4.79148ZM13.5484 4.79148H15.8065V7.04953H13.5484V4.79148ZM9.03234 56.9348V45.4367H6.77416V56.9348C5.4633 57.4022 4.51611 58.6442 4.51611 60.1142C4.51611 61.5842 5.46344 62.8261 6.77416 63.2936V65.7594H9.03221V63.2936C10.3431 62.8261 11.2903 61.5842 11.2903 60.1142C11.2903 58.6442 10.3431 57.4022 9.03234 56.9348ZM7.90318 61.2431C7.28111 61.2431 6.77416 60.7372 6.77416 60.114C6.77416 59.4909 7.28111 58.985 7.90318 58.985C8.52525 58.985 9.03221 59.4909 9.03221 60.114C9.03221 60.7372 8.52539 61.2431 7.90318 61.2431ZM18.0645 52.4186V45.4366H15.8065V52.4186C14.4956 52.886 13.5484 54.1279 13.5484 55.5979C13.5484 57.0679 14.4958 58.3099 15.8065 58.7773V65.7593H18.0645V58.7773C19.3754 58.3099 20.3226 57.0679 20.3226 55.5979C20.3226 54.1279 19.3754 52.886 18.0645 52.4186ZM16.9355 56.727C16.3134 56.727 15.8065 56.2211 15.8065 55.5979C15.8065 54.9748 16.3134 54.4689 16.9355 54.4689C17.5576 54.4689 18.0645 54.9748 18.0645 55.5979C18.0645 56.2211 17.5576 56.727 16.9355 56.727ZM27.0969 50.1605V45.4366H24.8388V50.1605C23.5279 50.6279 22.5808 51.8699 22.5808 53.3399C22.5808 54.8099 23.5281 56.0518 24.8388 56.5193V65.7593H27.0969V56.5193C28.4077 56.0518 29.3549 54.8099 29.3549 53.3399C29.3549 51.8699 28.4076 50.6279 27.0969 50.1605ZM25.9677 54.4689C25.3456 54.4689 24.8387 53.9631 24.8387 53.3399C24.8387 52.7167 25.3456 52.2109 25.9677 52.2109C26.5898 52.2109 27.0967 52.7167 27.0967 53.3399C27.0967 53.9631 26.5899 54.4689 25.9677 54.4689ZM9.03234 13.8238H15.8065V16.0819H9.03234V13.8238ZM9.03234 18.3399H15.8065V20.5979H9.03234V18.3399ZM9.03234 22.856H15.8065V25.114H9.03234V22.856ZM9.03234 27.3722H15.8065V29.6303H9.03234V27.3722ZM9.03234 31.8883H15.8065V34.1464H9.03234V31.8883ZM9.03234 36.4044H15.8065V38.6625H9.03234V36.4044ZM22.5806 25.114H33.871V13.8238H22.5806V25.114ZM24.8387 16.0819H31.6128V22.856H24.8387V16.0819ZM22.5806 38.6625H33.871V27.3721H22.5806V38.6625ZM24.8387 29.6303H31.6128V36.4044H24.8387V29.6303Z" fill="white"/>
</g>
<defs>
<clipPath id="clip0_451_688">
<rect width="70" height="70" fill="white" transform="translate(0 0.275391)"/>
</clipPath>
</defs>
</svg>
