<svg width="68" height="68" viewBox="0 0 68 68" fill="none" xmlns="http://www.w3.org/2000/svg">
<mask id="mask0_451_668" style="mask-type:luminance" maskUnits="userSpaceOnUse" x="0" y="0" width="68" height="68">
<path d="M66.415 66.6905V1.86048H1.58496V66.6905H66.415Z" fill="white" stroke="white" stroke-width="2"/>
</mask>
<g mask="url(#mask0_451_668)">
<path d="M49.3225 37.2618C49.3225 32.1154 45.1506 27.9435 40.0041 27.9435C34.8578 27.9435 30.6858 32.1154 30.6858 37.2618C30.6858 42.4083 34.8578 46.5802 40.0041 46.5802C45.1506 46.5802 49.3225 42.4083 49.3225 37.2618Z" stroke="white" stroke-width="2" stroke-miterlimit="10" stroke-linecap="round" stroke-linejoin="round"/>
<path d="M44.0645 37.262C44.0645 35.0195 42.2466 33.2016 40.004 33.2016C37.7616 33.2016 35.9436 35.0195 35.9436 37.262C35.9436 39.5045 37.7616 41.3224 40.004 41.3224C42.2466 41.3224 44.0645 39.5045 44.0645 37.262Z" stroke="white" stroke-width="2" stroke-miterlimit="10" stroke-linecap="round" stroke-linejoin="round"/>
<path d="M44.4752 13.2948H35.5331L32.436 20.5327H47.5724L44.4752 13.2948Z" stroke="white" stroke-width="2" stroke-miterlimit="10" stroke-linecap="round" stroke-linejoin="round"/>
<path d="M48.3844 13.2947H31.6237C30.6174 13.2947 29.8018 12.479 29.8018 11.4729V5.64307C29.8018 4.63683 30.6174 3.82117 31.6237 3.82117H48.3844C49.3905 3.82117 50.2062 4.63683 50.2062 5.64307V11.4729C50.2062 12.479 49.3905 13.2947 48.3844 13.2947Z" stroke="white" stroke-width="2" stroke-miterlimit="10" stroke-linecap="round" stroke-linejoin="round"/>
<path d="M60.5991 7.77834C60.5991 6.22846 59.3426 4.97201 57.7927 4.97201C59.3426 4.97201 60.5991 3.71555 60.5991 2.16567C60.5991 3.71555 61.8555 4.97201 63.4054 4.97201C61.8555 4.97201 60.5991 6.22846 60.5991 7.77834Z" stroke="white" stroke-width="2" stroke-miterlimit="10" stroke-linecap="round" stroke-linejoin="round"/>
<path d="M21.0559 20.5327H58.8001C61.3952 20.5327 63.4991 22.6365 63.4991 25.2317V31.7955" stroke="white" stroke-width="2" stroke-miterlimit="10" stroke-linecap="round" stroke-linejoin="round"/>
<path d="M63.4992 43.543V48.9832C63.4992 51.5785 61.3954 53.6822 58.8002 53.6822H30.405" stroke="white" stroke-width="2" stroke-miterlimit="10" stroke-linecap="round" stroke-linejoin="round"/>
<path d="M10.7266 27.2924V21.9022L18.3281 14.2243H22.8787C24.613 14.2243 26.0189 15.6302 26.0189 17.3645C26.0189 19.0988 24.613 20.5049 22.8787 20.5049H20.9582L17.7228 23.8477" stroke="white" stroke-width="2" stroke-miterlimit="10" stroke-linecap="round" stroke-linejoin="round"/>
<path d="M26.0242 42.843C27.5605 43.6986 29.5067 43.1248 30.3281 41.557C31.1223 40.0409 30.5091 38.1633 29.0139 37.3304L26.2634 35.7985C27.7327 36.4614 29.4901 35.8997 30.2889 34.4656C31.1315 32.9529 30.5883 31.0434 29.0755 30.2009L17.7627 23.8998C17.7548 23.8954 17.7458 23.893 17.7367 23.8929C17.7276 23.8928 17.7187 23.895 17.7106 23.8993L8.14337 28.9692C7.32032 29.3996 6.63084 30.0472 6.14974 30.8417C5.66865 31.6362 5.4143 32.5473 5.41431 33.4761V38.1619" stroke="white" stroke-width="2" stroke-miterlimit="10" stroke-linecap="round" stroke-linejoin="round"/>
<path d="M14.0945 38.1732H18.2869L25.3891 42.5092C26.8671 43.4116 27.3337 45.3411 26.4314 46.8191C25.5292 48.2971 23.5996 48.7637 22.1217 47.8614L16.5241 44.4439H14.225" stroke="white" stroke-width="2" stroke-miterlimit="10" stroke-linecap="round" stroke-linejoin="round"/>
<path d="M26.0244 35.6654L17.7371 31.0494L13.2756 33.3574" stroke="white" stroke-width="2" stroke-miterlimit="10" stroke-linecap="round" stroke-linejoin="round"/>
<path d="M6.99472 36.799C6.2418 37.1976 5.61177 37.7939 5.17235 38.5238C4.73293 39.2536 4.50074 40.0895 4.50073 40.9414V49.1217C4.50073 53.6384 6.29496 57.9701 9.4887 61.1639V66.385" stroke="white" stroke-width="2" stroke-miterlimit="10" stroke-linecap="round" stroke-linejoin="round"/>
<path d="M25.627 66.3855C28.5765 63.0221 30.3742 58.6235 30.4045 53.8056" stroke="white" stroke-width="2" stroke-miterlimit="10" stroke-linecap="round" stroke-linejoin="round"/>
<path d="M30.405 53.6822H21.2083C18.613 53.6822 16.5093 51.5784 16.5093 48.9832V45.478" stroke="white" stroke-width="2" stroke-miterlimit="10" stroke-linecap="round" stroke-linejoin="round"/>
</g>
</svg>
