<svg width="68" height="67" viewBox="0 0 68 67" fill="none" xmlns="http://www.w3.org/2000/svg">
<path d="M54.6643 20.974L47.6087 14.0177C47.4633 13.8732 47.28 13.7716 47.0792 13.7242C46.8784 13.6768 46.6682 13.6857 46.4723 13.7496C46.2763 13.8136 46.1023 13.9303 45.9699 14.0864C45.8375 14.2425 45.7519 14.432 45.7228 14.6335C45.6061 15.4378 45.2646 16.1941 44.7365 16.8178C44.2085 17.4415 43.5147 17.9079 42.7329 18.1647C41.9511 18.4216 41.1123 18.4588 40.3103 18.2721C39.5083 18.0854 38.7749 17.6822 38.1922 17.1077C37.6095 16.5333 37.2006 15.8102 37.0112 15.0195C36.8219 14.2288 36.8595 13.4017 37.1201 12.631C37.3806 11.8602 37.8537 11.1762 38.4863 10.6555C39.1189 10.1349 39.886 9.79822 40.7017 9.6832C40.9061 9.65447 41.0983 9.57008 41.2567 9.43954C41.415 9.30899 41.5333 9.13747 41.5982 8.94426C41.6631 8.75106 41.6721 8.54383 41.624 8.34589C41.576 8.14795 41.4729 7.96715 41.3263 7.82383L34.2707 0.867575C34.0626 0.662529 33.7805 0.54734 33.4864 0.54734C33.1922 0.54734 32.9101 0.662529 32.702 0.867575L26.575 6.90617C26.2733 5.79294 25.6796 4.77764 24.8536 3.96239C24.0277 3.14713 22.9986 2.56066 21.8698 2.26196C20.741 1.96325 19.5523 1.96283 18.4233 2.26075C17.2943 2.55867 16.2648 3.14442 15.4382 3.9591C14.6117 4.77378 14.0173 5.78866 13.7148 6.90168C13.4123 8.0147 13.4124 9.18663 13.7151 10.2996C14.0178 11.4126 14.6123 12.4274 15.439 13.2419C16.2657 14.0564 17.2953 14.642 18.4244 14.9398L12.304 20.974C12.096 21.1791 11.9791 21.4572 11.9791 21.7473C11.9791 22.0373 12.096 22.3154 12.304 22.5205L18.4266 28.5646C17.0825 28.9206 15.8855 29.6829 15.0037 30.7445C14.1219 31.806 13.5998 33.1134 13.5108 34.4827C13.4218 35.852 13.7704 37.2143 14.5075 38.3782C15.2446 39.542 16.3331 40.4488 17.6201 40.971L15.0297 48.3374C14.6856 49.1018 14.5238 49.9337 14.5569 50.7694C14.59 51.605 14.817 52.422 15.2205 53.1576L19.1144 62.2357C19.1288 62.2706 19.1455 62.3046 19.1643 62.3374C19.437 62.8302 19.5794 63.3828 19.5781 63.9441V64.9941C19.5781 65.2842 19.695 65.5624 19.9031 65.7675C20.1111 65.9727 20.3933 66.0879 20.6875 66.0879C20.9817 66.0879 21.2639 65.9727 21.4719 65.7675C21.68 65.5624 21.7969 65.2842 21.7969 64.9941V63.9441C21.7957 63.0343 21.5671 62.1387 21.1313 61.3366L17.2362 52.2585C17.2208 52.221 17.203 52.1845 17.183 52.1491C16.9287 51.6916 16.7874 51.1814 16.7704 50.66C16.7535 50.1386 16.8614 49.6205 17.0854 49.1479L19.7989 41.4479C19.9154 41.4479 20.0296 41.4643 20.1472 41.4643C21.6114 41.4656 23.035 40.9899 24.1968 40.1114C25.3586 39.2328 26.1934 38.0004 26.5716 36.6059L28.4531 38.4532V49.6816C28.4531 49.9717 28.57 50.2499 28.7781 50.455C28.9861 50.6602 29.2683 50.7754 29.5625 50.7754C29.8567 50.7754 30.1389 50.6602 30.3469 50.455C30.555 50.2499 30.6719 49.9717 30.6719 49.6816V34.3691C30.6719 33.4989 31.0225 32.6643 31.6467 32.0489C32.2708 31.4336 33.1173 31.0879 34 31.0879C34.8827 31.0879 35.7292 31.4336 36.3533 32.0489C36.9775 32.6643 37.3281 33.4989 37.3281 34.3691V47.6155C37.3301 49.1435 37.6908 50.6503 38.382 52.0179L38.7881 52.8207C39.3249 53.8843 39.6042 55.0561 39.6042 56.2441C39.6042 57.4321 39.3249 58.604 38.7881 59.6676L37.6787 61.8551C37.4484 62.3111 37.3284 62.8135 37.3281 63.3229V64.9941C37.3281 65.2842 37.445 65.5624 37.6531 65.7675C37.8611 65.9727 38.1433 66.0879 38.4375 66.0879C38.7317 66.0879 39.0139 65.9727 39.2219 65.7675C39.43 65.5624 39.5469 65.2842 39.5469 64.9941V63.3229C39.5457 63.1537 39.5837 62.9865 39.6578 62.834L40.7672 60.6465C41.4572 59.2789 41.8163 57.7722 41.8163 56.2447C41.8163 54.7172 41.4572 53.2105 40.7672 51.8429L40.3612 51.0401C39.9634 50.2525 39.7056 49.4034 39.599 48.5299C40.3195 49.2429 41.1759 49.8083 42.1189 50.1936C43.0619 50.579 44.0729 50.7767 45.0938 50.7754C45.9764 50.7754 46.8229 50.4297 47.4471 49.8143C48.0712 49.199 48.4219 48.3644 48.4219 47.4941V41.2598C49.8537 40.9105 51.1271 40.1017 52.0417 38.9608C52.9563 37.8198 53.4602 36.4115 53.474 34.9573C53.4879 33.5031 53.0109 32.0857 52.1182 30.928C51.2255 29.7703 49.9677 28.9382 48.5428 28.5624L54.6643 22.5184C54.8716 22.3133 54.988 22.0357 54.988 21.7462C54.988 21.4567 54.8716 21.179 54.6643 20.974ZM45.0938 48.5879C43.6232 48.5862 42.2133 48.0094 41.1735 46.9842C40.1336 45.959 39.5486 44.569 39.5469 43.1191V37.4316L40.3944 36.596C40.7441 37.8913 41.4886 39.0495 42.5275 39.9141C43.5663 40.7786 44.8493 41.3079 46.2031 41.4304V47.4941C46.2031 47.7842 46.0862 48.0624 45.8782 48.2675C45.6702 48.4727 45.388 48.5879 45.0938 48.5879ZM45.2524 28.7177C45.0859 28.88 44.9758 29.09 44.9377 29.3178C44.8996 29.5455 44.9356 29.7793 45.0405 29.9856C45.1454 30.192 45.3138 30.3603 45.5217 30.4665C45.7295 30.5728 45.9661 30.6115 46.1976 30.5771C47.1193 30.4485 48.0586 30.6089 48.8827 31.0356C49.7068 31.4624 50.374 32.1338 50.7897 32.9549C51.2055 33.7761 51.3488 34.7053 51.1994 35.6111C51.05 36.517 50.6154 37.3536 49.9572 38.0025C49.299 38.6515 48.4504 39.0799 47.5317 39.2272C46.6129 39.3745 45.6703 39.2332 44.8375 38.8233C44.0046 38.4134 43.3236 37.7557 42.8908 36.9432C42.458 36.1307 42.2953 35.2045 42.4257 34.2959C42.4606 34.0676 42.4213 33.8344 42.3136 33.6295C42.2058 33.4246 42.0351 33.2585 41.8258 33.1551C41.6165 33.0517 41.3794 33.0162 41.1484 33.0537C40.9174 33.0912 40.7043 33.1998 40.5398 33.364L39.5469 34.3451C39.5436 32.8947 38.9561 31.5049 37.9136 30.4816C36.8711 29.4583 35.4589 28.8852 33.9878 28.8884C32.5167 28.8915 31.1071 29.4708 30.0691 30.4986C29.0312 31.5265 28.4499 32.9187 28.4531 34.3691V35.3601L26.4196 33.3552C26.2551 33.1911 26.042 33.0825 25.811 33.045C25.58 33.0075 25.3429 33.0429 25.1336 33.1464C24.9243 33.2498 24.7536 33.4158 24.6458 33.6207C24.5381 33.8256 24.4988 34.0589 24.5337 34.2871C24.6641 35.1958 24.5014 36.1219 24.0686 36.9344C23.6358 37.7469 22.9548 38.4047 22.1219 38.8146C21.2891 39.2245 20.3465 39.3658 19.4278 39.2185C18.509 39.0712 17.6604 38.6427 17.0022 37.9938C16.344 37.3448 15.9094 36.5082 15.76 35.6024C15.6106 34.6965 15.7539 33.7673 16.1697 32.9462C16.5854 32.125 17.2526 31.4536 18.0767 31.0269C18.9008 30.6002 19.8402 30.4398 20.7618 30.5684C20.9934 30.603 21.2302 30.5645 21.4382 30.4584C21.6463 30.3523 21.8149 30.1839 21.92 29.9775C22.025 29.7711 22.0611 29.5372 22.023 29.3093C21.985 29.0815 21.8748 28.8713 21.7081 28.709L14.6558 21.7473L21.7159 14.791C21.8824 14.6287 21.9925 14.4187 22.0306 14.191C22.0686 13.9632 22.0326 13.7295 21.9278 13.5231C21.8229 13.3168 21.6544 13.1484 21.4466 13.0422C21.2388 12.936 21.0022 12.8973 20.7707 12.9316C19.8502 13.0585 18.9126 12.8972 18.0901 12.4705C17.2676 12.0438 16.6018 11.3732 16.1865 10.5535C15.7713 9.73369 15.6276 8.80606 15.7757 7.90145C15.9238 6.99685 16.3563 6.16093 17.0121 5.51164C17.8579 4.71725 18.9813 4.27414 20.1495 4.27414C21.3176 4.27414 22.441 4.71725 23.2868 5.51164C23.7722 5.99153 24.138 6.57606 24.3551 7.21914C24.5723 7.86221 24.635 8.54624 24.5381 9.21726C24.5033 9.4455 24.5425 9.67876 24.6503 9.88366C24.758 10.0886 24.9288 10.2546 25.1381 10.358C25.3474 10.4614 25.5845 10.4969 25.8155 10.4594C26.0465 10.4219 26.2595 10.3133 26.4241 10.1491L33.4897 3.1907L38.4608 8.09289C37.4999 8.54535 36.6631 9.2185 36.0207 10.0558C35.3783 10.8931 34.9491 11.8702 34.769 12.905C34.5889 13.9397 34.6633 15.002 34.9859 16.0025C35.3084 17.0031 35.8697 17.9127 36.6227 18.6551C37.3757 19.3974 38.2983 19.9509 39.3132 20.2689C40.328 20.5869 41.4055 20.6602 42.455 20.4827C43.5045 20.3051 44.4955 19.8819 45.3448 19.2486C46.1941 18.6153 46.8769 17.7903 47.3358 16.8429L52.308 21.744L45.2524 28.7177ZM66.1719 23.4316H59.5156C59.2214 23.4316 58.9392 23.3164 58.7312 23.1113C58.5231 22.9062 58.4062 22.628 58.4062 22.3379C58.4062 22.0478 58.5231 21.7696 58.7312 21.5645C58.9392 21.3594 59.2214 21.2441 59.5156 21.2441H66.1719C66.4661 21.2441 66.7483 21.3594 66.9563 21.5645C67.1644 21.7696 67.2812 22.0478 67.2812 22.3379C67.2812 22.628 67.1644 22.9062 66.9563 23.1113C66.7483 23.3164 66.4661 23.4316 66.1719 23.4316ZM58.3164 10.8535C58.0722 10.8535 57.8348 10.7741 57.6411 10.6275C57.4473 10.4809 57.3081 10.2754 57.2449 10.0429C57.1817 9.81029 57.1981 9.56367 57.2915 9.34123C57.3849 9.11879 57.5502 8.93297 57.7617 8.81258L63.5305 5.53133C63.7851 5.38857 64.0867 5.35093 64.3694 5.4266C64.6521 5.50227 64.893 5.68513 65.0395 5.93525C65.186 6.18538 65.2262 6.48248 65.1513 6.7617C65.0764 7.04093 64.8925 7.27963 64.6398 7.4257L58.8711 10.707C58.7026 10.8033 58.5112 10.8539 58.3164 10.8535ZM64.0796 39.291C63.8848 39.2914 63.6934 39.2408 63.5249 39.1445L57.7562 35.8632C57.629 35.7919 57.5173 35.6965 57.4277 35.5825C57.3381 35.4685 57.2722 35.3382 57.2339 35.199C57.1955 35.0598 57.1855 34.9144 57.2043 34.7714C57.2232 34.6284 57.2706 34.4904 57.3437 34.3655C57.4169 34.2406 57.5144 34.1312 57.6306 34.0435C57.7468 33.9559 57.8795 33.8918 58.0209 33.855C58.1624 33.8181 58.3098 33.8092 58.4548 33.8287C58.5997 33.8483 58.7393 33.8959 58.8655 33.9688L64.6343 37.2501C64.8458 37.3705 65.011 37.5563 65.1045 37.7787C65.1979 38.0012 65.2143 38.2478 65.1511 38.4804C65.0879 38.7129 64.9486 38.9184 64.7549 39.065C64.5612 39.2116 64.3238 39.291 64.0796 39.291ZM8.48438 23.4316H1.82812C1.5339 23.4316 1.25173 23.3164 1.04368 23.1113C0.83563 22.9062 0.71875 22.628 0.71875 22.3379C0.71875 22.0478 0.83563 21.7696 1.04368 21.5645C1.25173 21.3594 1.5339 21.2441 1.82812 21.2441H8.48438C8.7786 21.2441 9.06077 21.3594 9.26882 21.5645C9.47687 21.7696 9.59375 22.0478 9.59375 22.3379C9.59375 22.628 9.47687 22.9062 9.26882 23.1113C9.06077 23.3164 8.7786 23.4316 8.48438 23.4316ZM9.68361 10.8535C9.48882 10.8539 9.2974 10.8033 9.12892 10.707L3.36017 7.4257C3.10745 7.27963 2.92359 7.04093 2.84871 6.7617C2.77383 6.48248 2.81401 6.18538 2.96049 5.93525C3.10697 5.68513 3.34785 5.50227 3.63057 5.4266C3.91328 5.35093 4.21488 5.38857 4.46955 5.53133L10.2383 8.81258C10.4498 8.93297 10.6151 9.11879 10.7085 9.34123C10.8019 9.56367 10.8183 9.81029 10.7551 10.0429C10.6919 10.2754 10.5527 10.4809 10.3589 10.6275C10.1652 10.7741 9.92781 10.8535 9.68361 10.8535ZM3.92041 39.291C3.6762 39.291 3.43883 39.2116 3.24509 39.065C3.05136 38.9184 2.91209 38.7129 2.84888 38.4804C2.78568 38.2478 2.80207 38.0012 2.89551 37.7787C2.98896 37.5563 3.15424 37.3705 3.36572 37.2501L9.13447 33.9688C9.26068 33.8959 9.40029 33.8483 9.54524 33.8287C9.6902 33.8092 9.83764 33.8181 9.97909 33.855C10.1205 33.8918 10.2532 33.9559 10.3694 34.0435C10.4856 34.1312 10.5831 34.2406 10.6563 34.3655C10.7294 34.4904 10.7768 34.6284 10.7956 34.7714C10.8145 34.9144 10.8045 35.0598 10.7661 35.199C10.7278 35.3382 10.6619 35.4685 10.5723 35.5825C10.4827 35.6965 10.371 35.7919 10.2438 35.8632L4.47509 39.1445C4.30661 39.2408 4.1152 39.2914 3.92041 39.291Z" fill="white"/>
</svg>
