<svg width="66" height="67" viewBox="0 0 66 67" fill="none" xmlns="http://www.w3.org/2000/svg">
<g clip-path="url(#clip0_454_744)">
<path d="M33.125 14.9552C23.1847 14.9552 15.0977 23.1666 15.0977 33.2599C15.0977 43.3531 23.1847 51.5646 33.125 51.5646C43.0653 51.5646 51.1523 43.3531 51.1523 33.2599C51.1523 23.1666 43.0653 14.9552 33.125 14.9552ZM33.125 48.9864C24.5847 48.9864 17.6367 41.9315 17.6367 33.2599C17.6367 24.5882 24.5847 17.5333 33.125 17.5333C41.6653 17.5333 48.6133 24.5882 48.6133 33.2599C48.6133 41.9315 41.6653 48.9864 33.125 48.9864ZM64.951 0.410442C64.7475 0.300736 64.5184 0.249318 64.2882 0.261693C64.0581 0.274069 63.8357 0.349772 63.6447 0.480696C57.4123 4.75665 53.6914 11.8692 53.6914 19.5067V36.2326C53.6914 38.0266 54.3795 39.7132 55.6287 40.9818L58.0078 43.3975V62.3927C58.0078 64.5251 59.7163 66.2599 61.8164 66.2599C63.9165 66.2599 65.625 64.5251 65.625 62.3927V1.54894C65.625 1.07212 65.3658 0.634223 64.951 0.410442ZM63.0859 62.3927C63.0859 63.1035 62.5164 63.6818 61.8164 63.6818C61.1164 63.6818 60.5469 63.1035 60.5469 62.3927V42.8634C60.5469 42.5215 60.4131 42.1937 60.175 41.9519L57.4241 39.1586C56.6544 38.3771 56.2305 37.338 56.2305 36.2326V19.5067C56.2305 13.5796 58.7544 8.00908 63.0859 4.16535V62.3927Z" fill="black"/>
<path d="M30.2124 23.0367C29.9372 22.382 29.191 22.0779 28.5463 22.3573C26.4411 23.2675 24.6462 24.7866 23.3852 26.7253C22.1242 28.664 21.4529 30.9365 21.4548 33.2599C21.4548 33.9717 22.0232 34.549 22.7244 34.549C23.4255 34.549 23.9939 33.9717 23.9939 33.2599C23.9924 31.4418 24.5177 29.6635 25.5045 28.1465C26.4913 26.6294 27.8959 25.4407 29.5433 24.7285C30.1881 24.449 30.4877 23.6916 30.2124 23.0367ZM33.125 21.4102L33.0609 21.4103C32.3597 21.4151 31.7952 21.9961 31.7999 22.708C31.8046 23.417 32.372 23.9884 33.0693 23.9884H33.0779L33.125 23.9883C33.8262 23.9883 34.3945 23.4112 34.3945 22.6992C34.3945 21.9873 33.8262 21.4102 33.125 21.4102ZM50.7236 16.306C48.4806 13.9063 45.8367 12.0181 42.8654 10.6939C39.7885 9.3229 36.5114 8.62771 33.125 8.62771C29.2555 8.62771 25.5566 9.52567 22.1311 11.2968C21.5064 11.6199 21.2577 12.396 21.5758 13.0305C21.8941 13.6647 22.6585 13.9171 23.2833 13.5942C26.3485 12.0094 29.6597 11.2058 33.125 11.2058C39.1421 11.2058 44.738 13.6473 48.8819 18.0808C49.0004 18.2079 49.1432 18.3091 49.3016 18.3782C49.46 18.4472 49.6306 18.4827 49.803 18.4825C50.1282 18.4829 50.4411 18.356 50.6767 18.1284C51.1852 17.6383 51.2062 16.8224 50.7236 16.306ZM51.9561 46.715C51.406 46.2736 50.6077 46.3684 50.1729 46.9268C46.0224 52.2571 39.8087 55.3139 33.125 55.3139C28.9419 55.3139 24.881 54.1043 21.3815 51.8157C20.7921 51.4301 20.0063 51.603 19.6267 52.2014C19.2471 52.8 19.4172 53.5977 20.0067 53.9831C23.9171 56.5404 28.4534 57.8919 33.125 57.8919C40.5898 57.8919 47.5295 54.4781 52.1645 48.5256C52.5994 47.9673 52.5062 47.1566 51.9561 46.715ZM17.8853 48.9767L17.8666 48.9549C17.8599 48.9465 17.8532 48.938 17.8462 48.9297C17.3946 48.385 16.5938 48.3154 16.0574 48.7738C15.521 49.2324 15.4522 50.0454 15.9039 50.5902L15.9163 50.605L15.9169 50.6045C15.9303 50.6218 15.9443 50.639 15.9588 50.656C16.0779 50.7972 16.2257 50.9105 16.3921 50.9881C16.5585 51.0657 16.7395 51.1057 16.9226 51.1054C17.2259 51.1057 17.5191 50.9954 17.7489 50.7945C18.2809 50.3307 18.3419 49.5169 17.8853 48.9767ZM16.3672 0.259888C15.666 0.259888 15.0977 0.837001 15.0977 1.54895V15.4708H12.8115C12.8116 15.4636 12.8125 15.4566 12.8125 15.4493V1.54895C12.8125 0.837001 12.2441 0.259888 11.543 0.259888C10.8418 0.259888 10.2734 0.837001 10.2734 1.54895V15.4493C10.2734 15.4565 10.2745 15.4636 10.2745 15.4708H7.98727C7.98739 15.4636 7.98828 15.4566 7.98828 15.4493V1.54895C7.98828 0.837001 7.41991 0.259888 6.71875 0.259888C6.01759 0.259888 5.44922 0.837001 5.44922 1.54895V15.4493C5.44922 15.4565 5.45023 15.4636 5.45023 15.4708H3.16406V1.54895C3.16406 0.837001 2.59569 0.259888 1.89453 0.259888C1.19337 0.259888 0.625 0.837001 0.625 1.54895V17.2755C0.625 20.4376 2.51457 23.2914 5.32227 24.5251V62.3927C5.32227 64.5251 7.0308 66.2599 9.13086 66.2599C11.2309 66.2599 12.9395 64.5251 12.9395 62.3927V24.5251C15.7472 23.2914 17.6367 20.4376 17.6367 17.2755V1.54895C17.6367 0.837001 17.0684 0.259888 16.3672 0.259888ZM11.3175 22.3828C11.0531 22.4604 10.8207 22.6231 10.6552 22.8465C10.4898 23.0698 10.4004 23.3417 10.4004 23.6212V62.3927C10.4004 63.1035 9.83088 63.6818 9.13086 63.6818C8.43084 63.6818 7.86133 63.1035 7.86133 62.3927V23.6212C7.86133 23.3417 7.77189 23.0698 7.60647 22.8465C7.44106 22.6231 7.20863 22.4604 6.94422 22.3828C4.96591 21.8023 3.5189 20.0781 3.22145 18.049H15.0401C14.7428 20.0781 13.2958 21.8023 11.3175 22.3828Z" fill="black"/>
</g>
<defs>
<clipPath id="clip0_454_744">
<rect width="65" height="66" fill="white" transform="translate(0.625 0.259888)"/>
</clipPath>
</defs>
</svg>
