<svg width="72" height="71" viewBox="0 0 72 71" fill="none" xmlns="http://www.w3.org/2000/svg">
<g clip-path="url(#clip0_454_734)">
<path d="M49.5114 61.6003C40.1418 54.0439 40.9701 44.3395 43.7972 36.9114C43.9103 36.7551 43.9819 36.5734 44.0055 36.3828C45.3563 33.0693 47.1089 29.9291 49.2252 27.0309C49.2346 27.0203 49.2489 27.0169 49.2584 27.0052L49.6358 26.5035C51.5506 23.7756 52.5733 20.5355 52.5669 17.218C52.5669 16.847 52.5374 16.4818 52.5124 16.1155C52.5131 16.1031 52.5131 16.0906 52.5124 16.0782C52.5124 16.0666 52.5054 16.0571 52.5041 16.0455C51.9706 8.55621 46.3134 2.39703 38.8071 1.1332C38.6531 1.07559 38.4886 1.05053 38.3242 1.05964H38.3171C37.5498 0.948409 36.7756 0.889935 36.0001 0.884644C27.8843 0.886421 20.9679 6.69109 19.6701 14.5895C19.6573 14.6231 19.6462 14.6574 19.6369 14.6921C19.6369 14.7202 19.644 14.7446 19.6369 14.7714C19.5077 15.5808 19.4396 16.3986 19.4334 17.2179C19.4299 20.5552 20.4659 23.8132 22.4012 26.5513L22.7421 27.0039C22.7504 27.0145 22.7622 27.0179 22.7705 27.0284C24.9929 30.0722 29.6752 37.3896 30.0835 45.345V46.3845C30.0896 46.4273 30.0983 46.4698 30.1096 46.5117C30.1101 49.4365 29.4222 52.3217 28.0998 54.9399C26.7774 57.5581 24.8567 59.8381 22.4889 61.6002C20.7423 61.8425 19.441 63.3123 19.4335 65.0513V69.7179C19.4335 70.0273 19.5582 70.324 19.7801 70.5428C20.002 70.7616 20.303 70.8845 20.6168 70.8845H51.3835C51.6973 70.8845 51.9983 70.7616 52.2202 70.5428C52.4421 70.324 52.5668 70.0273 52.5668 69.7179V65.0513C52.5593 63.3123 51.258 61.8426 49.5114 61.6003ZM50.0108 15.0013H50.0072C46.2489 14.9207 45.6903 13.2956 45.0656 11.4371C44.6313 10.1457 44.0906 8.53802 42.2919 7.94644C40.627 7.39697 39.9726 5.24091 39.7158 3.71609C45.1043 5.14726 49.1365 9.56724 50.0108 15.0013ZM25.9619 7.32109C26.9956 6.30318 28.1817 5.44775 29.4787 4.78468C29.7329 5.64547 29.9306 6.52151 30.0705 7.40736C30.2492 8.64753 29.8397 9.44091 28.8705 9.75933L28.6184 9.83753C28.0562 9.99189 27.5124 10.2051 26.9961 10.4734C26.2793 10.8925 25.6903 11.4941 25.2909 12.2152C25.1903 12.4077 25.1027 12.6095 25.0152 12.8114C24.9482 12.9784 24.8727 13.1419 24.7891 13.3014C24.5252 13.7681 23.7241 13.8427 23.271 13.8229C22.9361 13.8229 22.5941 13.8018 22.2462 13.7809C22.8679 11.3354 24.1523 9.10246 25.9619 7.32109ZM32.4099 46.5841C32.4293 46.5189 32.4427 46.4522 32.4501 46.3846V33.5513C32.4501 33.2419 32.3254 32.9451 32.1035 32.7263C31.8816 32.5076 31.5806 32.3846 31.2668 32.3846C30.953 32.3846 30.652 32.5076 30.4301 32.7263C30.2082 32.9451 30.0835 33.2419 30.0835 33.5513V35.4739C28.6728 31.9623 26.8351 28.6324 24.6105 25.5573C24.5271 25.4562 24.4481 25.3515 24.3738 25.2435L24.3005 25.1444L24.291 25.1362C22.6662 22.8066 21.7975 20.0453 21.8001 17.218C21.8001 16.84 21.8261 16.4668 21.8557 16.0934C22.329 16.1271 22.7881 16.1494 23.2402 16.1564H23.3242C24.0177 16.2162 24.7145 16.0868 25.3384 15.7823C25.9622 15.4777 26.489 15.0098 26.8612 14.4298C26.9857 14.1985 27.0979 13.961 27.1972 13.7182C27.2599 13.57 27.3227 13.423 27.3783 13.3144C27.5682 12.9789 27.8429 12.6976 28.1758 12.4978C28.5427 12.3175 28.9268 12.1733 29.3225 12.0673L29.6052 11.9798C31.6925 11.3164 32.9145 9.18511 32.4144 7.07978C32.2441 6.00062 31.9994 4.93415 31.682 3.88781C33.0775 3.44589 34.5342 3.21999 35.9999 3.21816C36.4236 3.21816 36.8425 3.24263 37.2602 3.27886C37.4873 5.36957 38.3417 9.10281 41.5426 10.1622C42.1568 10.364 42.391 10.9019 42.8194 12.1735C43.5104 14.228 44.5399 17.2648 50.1998 17.3348C50.1862 20.1177 49.3259 22.8326 47.7302 25.1282C47.7302 25.1351 47.716 25.1387 47.7101 25.1457L47.6367 25.2448C47.567 25.3382 47.49 25.4419 47.3527 25.6123C45.1276 28.6881 43.2917 32.0203 41.8857 35.5348C40.1995 37.7362 34.8165 45.4771 34.8165 54.5514C34.8165 54.8608 34.9412 55.1575 35.1631 55.3763C35.385 55.5951 35.686 55.718 35.9998 55.718C36.3136 55.718 36.6146 55.5951 36.8365 55.3763C37.0584 55.1575 37.1831 54.8608 37.1831 54.5514C37.2583 50.7841 38.1381 47.0747 39.7652 43.6652C39.2951 46.9152 39.6093 50.2287 40.6822 53.3366C41.7551 56.4444 43.5564 59.2589 45.9398 61.5514H26.0601C28.0934 59.6121 29.7049 57.2849 30.7966 54.7117C31.8882 52.1385 32.4371 49.3732 32.4099 46.5841ZM50.2001 68.5513H21.8001V65.0513C21.8001 64.8981 21.8307 64.7464 21.8901 64.6048C21.9496 64.4633 22.0368 64.3347 22.1466 64.2263C22.2565 64.118 22.387 64.0321 22.5305 63.9734C22.6741 63.9148 22.828 63.8846 22.9834 63.8846H49.0166C49.172 63.8846 49.3259 63.9148 49.4695 63.9734C49.613 64.0321 49.7435 64.118 49.8534 64.2263C49.9632 64.3347 50.0504 64.4633 50.1099 64.6048C50.1693 64.7464 50.1999 64.8981 50.1999 65.0513V68.5513H50.2001Z" fill="black"/>
<path d="M33.6335 65.0512H31.2667C30.6132 65.0512 30.0835 65.5735 30.0835 66.2179C30.0835 66.8622 30.6132 67.3845 31.2667 67.3845H33.6335C34.287 67.3845 34.8167 66.8622 34.8167 66.2179C34.8167 65.5735 34.287 65.0512 33.6335 65.0512ZM43.1002 65.0512H38.3669C37.7133 65.0512 37.1836 65.5735 37.1836 66.2179C37.1836 66.8622 37.7133 67.3845 38.3669 67.3845H43.1002C43.7537 67.3845 44.2835 66.8622 44.2835 66.2179C44.2835 65.5735 43.7537 65.0512 43.1002 65.0512ZM46.5319 21.2394C46.6035 21.1021 46.6468 20.9521 46.6592 20.7982C46.6716 20.6442 46.6529 20.4894 46.6041 20.3426C46.5554 20.1959 46.4776 20.0601 46.3753 19.9432C46.2729 19.8263 46.1481 19.7306 46.008 19.6616C45.8678 19.5926 45.7152 19.5517 45.5589 19.5413C45.4027 19.5308 45.2459 19.5511 45.0976 19.6009C44.9493 19.6506 44.8125 19.7289 44.6951 19.8311C44.5778 19.9334 44.4821 20.0576 44.4138 20.1966C43.7045 21.3534 42.6887 22.2977 41.4756 22.9278C42.4971 20.4889 41.7308 17.6776 39.607 16.0722C37.4831 14.4667 34.5307 14.4667 32.4068 16.0722C30.2829 17.6776 29.5167 20.4889 30.5382 22.9278C29.3226 22.2953 28.3051 21.3477 27.5953 20.1873C27.5253 20.0504 27.4287 19.9284 27.311 19.8283C27.1933 19.7282 27.0567 19.6519 26.909 19.6039C26.7614 19.5558 26.6056 19.5369 26.4506 19.5482C26.2955 19.5595 26.1442 19.6008 26.0054 19.6698C25.8665 19.7387 25.7428 19.834 25.6413 19.95C25.5398 20.0661 25.4624 20.2008 25.4137 20.3463C25.3649 20.4919 25.3458 20.6455 25.3572 20.7984C25.3687 20.9512 25.4106 21.1004 25.4805 21.2373C25.587 21.4566 28.2578 26.5514 36.0003 26.5514C43.7428 26.5514 46.4135 21.4564 46.5319 21.2394ZM32.4502 20.718C32.4502 18.7851 34.0395 17.218 36.0002 17.218C37.9608 17.218 39.5502 18.7849 39.5502 20.718C39.5502 22.6511 37.9608 24.218 36.0002 24.218C34.0395 24.218 32.4502 22.6509 32.4502 20.718Z" fill="black"/>
</g>
<defs>
<clipPath id="clip0_454_734">
<rect width="71" height="70" fill="white" transform="translate(0.5 0.884644)"/>
</clipPath>
</defs>
</svg>
