<svg width="61" height="61" viewBox="0 0 61 61" fill="none" xmlns="http://www.w3.org/2000/svg">
<path d="M53.125 27.6849H38.125C36.9651 27.6836 35.8531 27.2223 35.0329 26.4021C34.2127 25.5819 33.7513 24.4699 33.75 23.3099V8.30994C33.7513 7.15002 34.2127 6.03799 35.0329 5.21781C35.8531 4.39762 36.9651 3.93626 38.125 3.93494H53.125C54.2849 3.93626 55.3969 4.39762 56.2171 5.21781C57.0373 6.03799 57.4987 7.15002 57.5 8.30994V23.3099C57.4987 24.4699 57.0373 25.5819 56.2171 26.4021C55.3969 27.2223 54.2849 27.6836 53.125 27.6849ZM38.125 7.68494C37.9592 7.68494 37.8003 7.75078 37.6831 7.86799C37.5658 7.98521 37.5 8.14418 37.5 8.30994V23.3099C37.5 23.4757 37.5658 23.6347 37.6831 23.7519C37.8003 23.8691 37.9592 23.9349 38.125 23.9349H53.125C53.2908 23.9349 53.4497 23.8691 53.5669 23.7519C53.6842 23.6347 53.75 23.4757 53.75 23.3099V8.30994C53.75 8.14418 53.6842 7.98521 53.5669 7.86799C53.4497 7.75078 53.2908 7.68494 53.125 7.68494H38.125ZM45.625 58.9224C45.0506 58.9234 44.4817 58.8109 43.951 58.5912C43.4202 58.3715 42.9382 58.0491 42.5325 57.6424L33.7925 48.9024C32.9739 48.0814 32.5142 46.9693 32.5142 45.8099C32.5142 44.6506 32.9739 43.5385 33.7925 42.7174L42.5325 33.9774C43.3532 33.1582 44.4654 32.6982 45.625 32.6982C46.7846 32.6982 47.8968 33.1582 48.7175 33.9774L57.4575 42.7174C58.2767 43.5381 58.7368 44.6504 58.7368 45.8099C58.7368 46.9695 58.2767 48.0817 57.4575 48.9024L48.7175 57.6424C48.3118 58.0491 47.8298 58.3715 47.299 58.5912C46.7683 58.8109 46.1994 58.9234 45.625 58.9224ZM45.625 36.4449C45.5428 36.4445 45.4614 36.4604 45.3854 36.4918C45.3095 36.5231 45.2405 36.5692 45.1825 36.6274L36.4425 45.3674C36.3843 45.4255 36.3381 45.4945 36.3066 45.5704C36.2751 45.6463 36.2589 45.7277 36.2589 45.8099C36.2589 45.8921 36.2751 45.9735 36.3066 46.0495C36.3381 46.1254 36.3843 46.1944 36.4425 46.2524L45.1825 54.9924C45.2406 55.0506 45.3095 55.0968 45.3855 55.1283C45.4614 55.1598 45.5428 55.1761 45.625 55.1761C45.7072 55.1761 45.7886 55.1598 45.8645 55.1283C45.9405 55.0968 46.0094 55.0506 46.0675 54.9924L54.8075 46.2524C54.8657 46.1944 54.9119 46.1254 54.9434 46.0495C54.9749 45.9735 54.9911 45.8921 54.9911 45.8099C54.9911 45.7277 54.9749 45.6463 54.9434 45.5704C54.9119 45.4945 54.8657 45.4255 54.8075 45.3674L46.0675 36.6274C46.0095 36.5692 45.9405 36.5231 45.8646 36.4918C45.7886 36.4604 45.7072 36.4445 45.625 36.4449ZM23.125 27.6849H8.125C6.96508 27.6836 5.85305 27.2223 5.03287 26.4021C4.21268 25.5819 3.75132 24.4699 3.75 23.3099V8.30994C3.75132 7.15002 4.21268 6.03799 5.03287 5.21781C5.85305 4.39762 6.96508 3.93626 8.125 3.93494H23.125C24.2849 3.93626 25.3969 4.39762 26.2171 5.21781C27.0373 6.03799 27.4987 7.15002 27.5 8.30994V23.3099C27.4987 24.4699 27.0373 25.5819 26.2171 26.4021C25.3969 27.2223 24.2849 27.6836 23.125 27.6849ZM8.125 7.68494C7.95924 7.68494 7.80027 7.75078 7.68306 7.86799C7.56585 7.98521 7.5 8.14418 7.5 8.30994V23.3099C7.5 23.4757 7.56585 23.6347 7.68306 23.7519C7.80027 23.8691 7.95924 23.9349 8.125 23.9349H23.125C23.2908 23.9349 23.4497 23.8691 23.5669 23.7519C23.6842 23.6347 23.75 23.4757 23.75 23.3099V8.30994C23.75 8.14418 23.6842 7.98521 23.5669 7.86799C23.4497 7.75078 23.2908 7.68494 23.125 7.68494H8.125ZM23.125 57.6849H8.125C6.96508 57.6836 5.85305 57.2223 5.03287 56.4021C4.21268 55.5819 3.75132 54.4699 3.75 53.3099V38.3099C3.75132 37.15 4.21268 36.038 5.03287 35.2178C5.85305 34.3976 6.96508 33.9363 8.125 33.9349H23.125C24.2849 33.9363 25.3969 34.3976 26.2171 35.2178C27.0373 36.038 27.4987 37.15 27.5 38.3099V53.3099C27.4987 54.4699 27.0373 55.5819 26.2171 56.4021C25.3969 57.2223 24.2849 57.6836 23.125 57.6849ZM8.125 37.6849C7.95924 37.6849 7.80027 37.7508 7.68306 37.868C7.56585 37.9852 7.5 38.1442 7.5 38.3099V53.3099C7.5 53.4757 7.56585 53.6347 7.68306 53.7519C7.80027 53.8691 7.95924 53.9349 8.125 53.9349H23.125C23.2908 53.9349 23.4497 53.8691 23.5669 53.7519C23.6842 53.6347 23.75 53.4757 23.75 53.3099V38.3099C23.75 38.1442 23.6842 37.9852 23.5669 37.868C23.4497 37.7508 23.2908 37.6849 23.125 37.6849H8.125Z" fill="black"/>
</svg>
