<svg width="67" height="67" viewBox="0 0 67 67" fill="none" xmlns="http://www.w3.org/2000/svg">
<g clip-path="url(#clip0_454_318)">
<path fill-rule="evenodd" clip-rule="evenodd" d="M57.1632 27.4518H13.184L55.4266 15.2147C55.7548 15.1193 56.0318 14.8977 56.1969 14.5984C56.2787 14.4502 56.3304 14.2873 56.3491 14.119C56.3679 13.9508 56.3532 13.7805 56.3061 13.6179L54.0956 5.98681C53.2124 2.93895 50.3745 0.809937 47.194 0.809937C46.5239 0.809937 45.8562 0.905069 45.2087 1.09237L5.54733 12.5818C3.713 13.1129 2.19268 14.3325 1.26571 16.0148C0.339135 17.697 0.12167 19.6342 0.652893 21.4682L2.81259 28.9236V59.636C2.81246 63.5918 6.03073 66.8099 9.98596 66.8099H25.4759C26.1879 66.8099 26.7649 66.2328 26.7649 65.5209C26.7649 64.8089 26.1879 64.2318 25.4759 64.2318H9.98648C7.45218 64.2318 5.39071 62.1703 5.39071 59.636V42.0937H55.874V59.636C55.874 62.1703 53.8127 64.2318 51.2784 64.2318H35.7884C35.0768 64.2318 34.4993 64.8089 34.4993 65.5209C34.4993 66.2328 35.0768 66.8099 35.7884 66.8099H51.2784C55.2341 66.8099 58.4523 63.5918 58.4523 59.636V28.7408C58.4523 28.0287 57.8751 27.4518 57.1632 27.4518ZM34.4329 39.5156L39.9099 30.0299H47.0335L41.5569 39.5156H34.4329ZM24.3318 39.5156L29.8089 30.0299H36.9324L31.4559 39.5156H24.3318ZM14.2314 39.5156L19.7078 30.0299H26.8319L21.355 39.5156H14.2314ZM19.0241 22.8278L9.85254 14.0188L16.7244 12.0283C16.7738 12.1002 16.8305 12.1668 16.8935 12.2272L26.0651 21.0361L19.1932 23.0267C19.1438 22.9548 19.0871 22.8881 19.0241 22.8278ZM36.2975 6.60621L45.4688 15.415L38.5971 17.4055C38.5477 17.3335 38.491 17.2668 38.4278 17.2066L29.2564 8.39762L36.1282 6.40718C36.1776 6.47908 36.2343 6.54573 36.2974 6.60608L36.2975 6.60621ZM26.5953 9.41701L35.7667 18.2254L28.895 20.2164C28.8456 20.1444 28.7889 20.0777 28.7257 20.0175L19.5543 11.2085L26.4262 9.2181C26.4749 9.2881 26.5313 9.355 26.5953 9.41701ZM45.9262 3.56879C46.34 3.44891 46.7667 3.38806 47.1941 3.38806C49.2339 3.38806 51.0532 4.75163 51.6192 6.70443L53.4712 13.0969L48.2995 14.5948C48.2497 14.523 48.1928 14.4564 48.1297 14.396L38.9587 5.58746L45.9262 3.56879ZM3.52402 17.2586C4.11828 16.1794 5.09152 15.398 6.26483 15.0582L7.02215 14.8385C7.07181 14.9103 7.12851 14.9769 7.1914 15.0374L16.3628 23.8464L4.98131 27.1436L3.12931 20.7511C2.78938 19.5784 2.92989 18.3382 3.52402 17.2586ZM5.39058 30.0299H16.731L11.2544 39.5156H5.39071L5.39058 30.0299ZM44.5339 39.5156L50.0104 30.0299H55.8741V39.5156H44.5339Z" fill="black"/>
<path fill-rule="evenodd" clip-rule="evenodd" d="M39.5459 53.0315C39.5459 52.8052 39.4864 52.5829 39.3732 52.387C39.2601 52.191 39.0973 52.0283 38.9014 51.9152L27.5762 45.3767C27.3802 45.2636 27.1579 45.2041 26.9316 45.2041C26.7054 45.2041 26.4831 45.2636 26.2871 45.3767C26.0911 45.4898 25.9284 45.6525 25.8152 45.8485C25.7021 46.0444 25.6425 46.2667 25.6426 46.493V59.57C25.6426 59.7962 25.7022 60.0184 25.8153 60.2143C25.9285 60.4102 26.0912 60.5728 26.2871 60.6858C26.483 60.7992 26.7053 60.8589 26.9316 60.8589C27.158 60.8589 27.3803 60.7992 27.5762 60.6858L38.9014 54.1479C39.0973 54.0347 39.2601 53.872 39.3732 53.6761C39.4864 53.4801 39.5459 53.2578 39.5459 53.0315ZM28.2207 57.3374V48.7257L35.6787 53.0314L28.2207 57.3374ZM30.6322 64.2318C29.9223 64.2318 29.3431 64.8108 29.3431 65.5209C29.3431 66.2309 29.9223 66.8099 30.6322 66.8099C31.3427 66.8099 31.9212 66.2309 31.9212 65.5209C31.9212 64.8108 31.3427 64.2318 30.6322 64.2318Z" fill="black"/>
</g>
<defs>
<clipPath id="clip0_454_318">
<rect width="66" height="66" fill="white" transform="translate(0.368408 0.809937)"/>
</clipPath>
</defs>
</svg>
