<svg width="60" height="59" viewBox="0 0 60 59" fill="none" xmlns="http://www.w3.org/2000/svg">
<g clip-path="url(#clip0_454_639)">
<path d="M42.7833 54.8901H15.25C14.9892 54.8902 14.7392 54.992 14.5548 55.1733C14.3704 55.3545 14.2668 55.6003 14.2667 55.8567V57.7901C14.2667 58.3236 14.7072 58.7567 15.25 58.7567C15.7928 58.7567 16.2333 58.3236 16.2333 57.7901V56.8234H42.7833C43.3261 56.8234 43.7666 56.3904 43.7666 55.8568C43.7666 55.3232 43.3262 54.8901 42.7833 54.8901ZM22.1333 24.9233C22.1334 25.1797 22.237 25.4255 22.4214 25.6067C22.6058 25.788 22.8558 25.8899 23.1166 25.8899H27.05C27.3108 25.8899 27.5608 25.788 27.7452 25.6067C27.9296 25.4255 28.0332 25.1797 28.0333 24.9233V19.1233C28.0332 18.867 27.9296 18.6212 27.7452 18.4399C27.5608 18.2587 27.3108 18.1568 27.05 18.1567H23.1167C22.8559 18.1568 22.6059 18.2587 22.4215 18.4399C22.2371 18.6212 22.1335 18.867 22.1334 19.1233L22.1333 24.9233ZM24.1 20.0901H26.0667V23.9567H24.1V20.0901ZM13.2833 12.3567H1.48329C1.22254 12.3568 0.972485 12.4586 0.788102 12.6399C0.603718 12.8212 0.500092 13.067 0.5 13.3233L0.5 32.6567C0.5 33.1902 0.940541 33.6233 1.48329 33.6233C2.02605 33.6233 2.46659 33.1902 2.46659 32.6567V14.2901H13.2833C13.826 14.2901 14.2666 13.857 14.2666 13.3234C14.2666 12.7899 13.8262 12.3567 13.2833 12.3567ZM47.7 48.1233C47.7001 48.3797 47.8037 48.6255 47.9881 48.8067C48.1725 48.988 48.4225 49.0899 48.6833 49.0899H52.6166C52.8773 49.0899 53.1274 48.988 53.3118 48.8067C53.4962 48.6255 53.5998 48.3797 53.5999 48.1233V42.3233C53.5998 42.067 53.4962 41.8212 53.3118 41.6399C53.1274 41.4587 52.8773 41.3568 52.6166 41.3567H48.6833C48.4225 41.3568 48.1725 41.4587 47.9881 41.6399C47.8037 41.8212 47.7001 42.067 47.7 42.3233V48.1233ZM49.6667 43.2901H51.6334V47.1567H49.6667V43.2901ZM5.41671 35.5567C0.556004 35.5567 0.5 47.9977 0.5 48.1233C0.5 50.4578 2.19233 52.4095 4.4333 52.859V57.7901C4.43339 58.0464 4.53701 58.2922 4.7214 58.4735C4.90578 58.6547 5.15583 58.7566 5.41659 58.7567C5.67735 58.7566 5.9274 58.6547 6.11178 58.4735C6.29617 58.2922 6.39979 58.0464 6.39989 57.7901V52.859C8.64085 52.4095 10.3332 50.4578 10.3332 48.1233C10.3333 47.9977 10.2773 35.5567 5.41671 35.5567ZM5.41671 51.0233C3.79029 51.0233 2.46671 49.7222 2.46671 48.1233C2.46671 43.3074 3.78245 37.4899 5.41671 37.4899C7.05096 37.4899 8.36671 43.3074 8.36671 48.1233C8.36671 49.7222 7.04312 51.0233 5.41671 51.0233ZM11.3167 29.7567H7.3833C7.12254 29.7568 6.87249 29.8586 6.6881 30.0399C6.50372 30.2212 6.40009 30.467 6.4 30.7233V32.6567C6.4 33.1902 6.84054 33.6233 7.3833 33.6233C7.92605 33.6233 8.36659 33.1902 8.36659 32.6567V31.6901H10.3333V36.5234C10.3334 36.7798 10.437 37.0256 10.6214 37.2068C10.8058 37.3881 11.0558 37.49 11.3166 37.4901C11.5773 37.49 11.8274 37.3881 12.0118 37.2068C12.1962 37.0256 12.2998 36.7798 12.2999 36.5234V30.7234C12.2999 30.4671 12.1963 30.2212 12.0119 30.04C11.8275 29.8587 11.5775 29.7568 11.3167 29.7567ZM48.6833 25.8901H52.6166C52.8773 25.89 53.1274 25.7881 53.3118 25.6068C53.4962 25.4256 53.5998 25.1798 53.5999 24.9234V19.1234C53.5998 18.8671 53.4962 18.6213 53.3118 18.44C53.1274 18.2588 52.8773 18.1569 52.6166 18.1568H48.6833C48.4225 18.1569 48.1725 18.2588 47.9881 18.44C47.8037 18.6213 47.7001 18.8671 47.7 19.1234V24.9234C47.7001 25.1798 47.8037 25.4256 47.9881 25.6068C48.1725 25.7881 48.4225 25.89 48.6833 25.8901ZM49.6667 20.0901H51.6334V23.9567H49.6667V20.0901Z" fill="black"/>
<path d="M11.3166 18.1568H7.3832C7.12244 18.1569 6.87239 18.2587 6.688 18.44C6.50362 18.6213 6.39999 18.8671 6.3999 19.1234V24.9234C6.39999 25.1797 6.50362 25.4256 6.688 25.6068C6.87239 25.7881 7.12244 25.8899 7.3832 25.89H11.3165C11.5772 25.8899 11.8273 25.7881 12.0117 25.6068C12.1961 25.4256 12.2997 25.1797 12.2998 24.9234V19.1234C12.2999 18.5898 11.8594 18.1568 11.3166 18.1568ZM10.3332 23.9568H8.36661V20.0901H10.3333L10.3332 23.9568ZM31.9666 24.9234C31.9667 25.1797 32.0703 25.4256 32.2547 25.6068C32.4391 25.7881 32.6891 25.8899 32.9499 25.89H36.8832C37.144 25.8899 37.394 25.7881 37.5784 25.6068C37.7628 25.4256 37.8664 25.1797 37.8665 24.9234V19.1234C37.8664 18.8671 37.7628 18.6213 37.5784 18.44C37.394 18.2587 37.144 18.1569 36.8832 18.1568H32.9499C32.6891 18.1569 32.4391 18.2587 32.2547 18.44C32.0703 18.6213 31.9667 18.8671 31.9666 19.1234V24.9234ZM33.9332 20.0901H35.8999V23.9568H33.9332V20.0901ZM58.5166 12.3568H46.7166C46.1738 12.3568 45.7333 12.7898 45.7333 13.3234C45.7333 13.857 46.1738 14.29 46.7166 14.29H57.5333V53.1346C57.2246 53.0263 56.8971 52.9568 56.55 52.9568C56.3799 52.9568 56.2108 52.9713 56.0446 53.0003C55.3661 51.7987 54.075 51.0234 52.6167 51.0234C51.1584 51.0234 49.8673 51.7987 49.1888 53.0003C49.022 52.9712 48.8529 52.9567 48.6834 52.9568C47.057 52.9568 45.7334 54.2579 45.7334 55.8568C45.7334 57.4556 47.057 58.7568 48.6834 58.7568H56.5499C58.1763 58.7568 59.4999 57.4556 59.4999 55.8568V13.3234C59.4998 13.0671 59.3962 12.8212 59.2118 12.64C59.0274 12.4587 58.7774 12.3569 58.5166 12.3568ZM56.5499 56.8234H48.6832C48.1414 56.8234 47.6999 56.3894 47.6999 55.8568C47.6999 55.3241 48.1414 54.8901 48.6832 54.8901C48.8719 54.8901 49.0509 54.9433 49.2162 55.0477C49.3489 55.1316 49.5001 55.1829 49.6572 55.1973C49.8143 55.2118 49.9726 55.189 50.1189 55.1309C50.2651 55.0727 50.3949 54.9808 50.4973 54.8628C50.5997 54.7448 50.6716 54.6043 50.7069 54.4532C50.9145 53.5726 51.7001 52.9568 52.6166 52.9568C53.5331 52.9568 54.3187 53.5726 54.5263 54.4532C54.5616 54.6043 54.6335 54.7448 54.7359 54.8628C54.8383 54.9808 54.9681 55.0727 55.1143 55.1309C55.2606 55.189 55.4189 55.2118 55.576 55.1973C55.7331 55.1828 55.8843 55.1315 56.0171 55.0477C56.6572 54.6417 57.5333 55.1386 57.5333 55.8568C57.5332 56.3894 57.0917 56.8234 56.5499 56.8234ZM32.9499 14.2901H36.8832C37.144 14.2901 37.394 14.1882 37.5784 14.0069C37.7628 13.8257 37.8664 13.5799 37.8665 13.3235V7.52351C37.8664 7.26718 37.7628 7.02136 37.5784 6.8401C37.394 6.65884 37.144 6.55697 36.8832 6.55688H32.9499C32.6891 6.55697 32.4391 6.65884 32.2547 6.8401C32.0703 7.02136 31.9667 7.26718 31.9666 7.52351V13.3235C31.9667 13.5799 32.0703 13.8257 32.2547 14.0069C32.4391 14.1882 32.6891 14.2901 32.9499 14.2901ZM33.9332 8.49014H35.8999V12.3568H33.9332V8.49014ZM31.9666 36.5234C31.9667 36.7797 32.0703 37.0256 32.2547 37.2068C32.4391 37.3881 32.6891 37.4899 32.9499 37.49H36.8832C37.144 37.4899 37.394 37.3881 37.5784 37.2068C37.7628 37.0256 37.8664 36.7797 37.8665 36.5234V30.7234C37.8664 30.4671 37.7628 30.2212 37.5784 30.04C37.394 29.8587 37.144 29.7569 36.8832 29.7568H32.9499C32.6891 29.7569 32.4391 29.8587 32.2547 30.04C32.0703 30.2212 31.9667 30.4671 31.9666 30.7234V36.5234ZM33.9332 31.6901H35.8999V35.5568H33.9332V31.6901ZM23.1166 14.2901H27.0499C27.3107 14.2901 27.5607 14.1882 27.7451 14.0069C27.9295 13.8257 28.0331 13.5799 28.0332 13.3235V7.52351C28.0331 7.26718 27.9295 7.02136 27.7451 6.8401C27.5607 6.65884 27.3107 6.55697 27.0499 6.55688H23.1166C22.8558 6.55697 22.6058 6.65884 22.4214 6.8401C22.237 7.02136 22.1334 7.26718 22.1333 7.52351V13.3235C22.1332 13.8571 22.5737 14.2901 23.1166 14.2901ZM24.0999 8.49014H26.0666V12.3568H24.0999V8.49014ZM29.3017 47.4371C29.1247 47.6208 29.0165 47.8721 29.0165 48.1235C29.0165 48.3749 29.1247 48.6261 29.3017 48.8099C29.4885 48.9839 29.7442 49.0903 29.9999 49.0903C30.2556 49.0903 30.5112 48.9839 30.6981 48.8099C30.8751 48.6263 30.9833 48.3749 30.9833 48.1235C30.9833 47.8721 30.8751 47.6209 30.6981 47.4371C30.3244 47.0794 29.6754 47.0794 29.3017 47.4371ZM22.1332 36.5234C22.1333 36.7797 22.2369 37.0256 22.4213 37.2068C22.6057 37.3881 22.8557 37.4899 23.1165 37.49H27.0499C27.3107 37.4899 27.5607 37.3881 27.7451 37.2068C27.9295 37.0256 28.0331 36.7797 28.0332 36.5234V30.7234C28.0331 30.4671 27.9295 30.2212 27.7451 30.04C27.5607 29.8587 27.3107 29.7569 27.0499 29.7568H23.1166C22.8558 29.7569 22.6058 29.8587 22.4214 30.04C22.237 30.2212 22.1334 30.4671 22.1333 30.7234L22.1332 36.5234ZM24.0999 31.6901H26.0666V35.5568H24.0999V31.6901Z" fill="black"/>
<path d="M20.1667 42.3233C20.1668 42.5797 20.2705 42.8255 20.4548 43.0068C20.6392 43.188 20.8893 43.2899 21.15 43.29H24.1V51.99C24.1001 52.2463 24.2038 52.4921 24.3881 52.6734C24.5725 52.8546 24.8226 52.9565 25.0833 52.9566C25.3441 52.9565 25.5941 52.8546 25.7785 52.6734C25.9629 52.4921 26.0665 52.2463 26.0666 51.99V43.29H33.9333V51.99C33.9333 52.5235 34.3739 52.9566 34.9166 52.9566C35.4594 52.9566 35.8999 52.5235 35.8999 51.99V43.29H38.8499C39.3927 43.29 39.8332 42.8569 39.8332 42.3233C39.8332 41.7898 39.3927 41.3567 38.8499 41.3567H21.15C20.8893 41.3568 20.6392 41.4587 20.4548 41.6399C20.2705 41.8212 20.1668 42.067 20.1667 42.3233ZM47.7 36.5233C47.7001 36.7797 47.8038 37.0255 47.9881 37.2068C48.1725 37.388 48.4226 37.4899 48.6833 37.49H52.6166C52.8774 37.4899 53.1274 37.388 53.3118 37.2068C53.4962 37.0255 53.5998 36.7797 53.5999 36.5233V30.7233C53.5998 30.467 53.4962 30.2212 53.3118 30.0399C53.1274 29.8587 52.8774 29.7568 52.6166 29.7567H48.6833C48.4226 29.7568 48.1725 29.8587 47.9881 30.0399C47.8038 30.2212 47.7001 30.467 47.7 30.7233V36.5233ZM49.6667 31.6901H51.6335V35.5567H49.6667V31.6901Z" fill="black"/>
<path d="M42.7833 0.756714H17.2167C16.9559 0.756804 16.7059 0.858674 16.5215 1.03993C16.3371 1.22119 16.2335 1.467 16.2334 1.72334V51.99C16.2335 52.2463 16.3371 52.4921 16.5215 52.6734C16.7059 52.8546 16.9559 52.9565 17.2167 52.9566C17.4775 52.9565 17.7275 52.8546 17.9119 52.6734C18.0963 52.4921 18.1999 52.2463 18.2 51.99V2.68997H41.8V51.99C41.8 52.5235 42.2405 52.9566 42.7833 52.9566C43.326 52.9566 43.7666 52.5235 43.7666 51.99V1.72334C43.7667 1.18979 43.3262 0.756714 42.7833 0.756714Z" fill="black"/>
</g>
<defs>
<clipPath id="clip0_454_639">
<rect width="59" height="58" fill="white" transform="translate(0.5 0.756714)"/>
</clipPath>
</defs>
</svg>
