<svg width="64" height="64" viewBox="0 0 64 64" fill="none" xmlns="http://www.w3.org/2000/svg">
<mask id="mask0_454_983" style="mask-type:luminance" maskUnits="userSpaceOnUse" x="0" y="0" width="64" height="64">
<path d="M62.3868 62.9042V1.3811H0.86377V62.9042H62.3868Z" fill="white" stroke="white" stroke-width="1.5"/>
</mask>
<g mask="url(#mask0_454_983)">
<path d="M43.4356 26.5572L51.8736 32.935C52.2795 33.3092 52.8868 33.3708 53.3558 33.0784C56.2113 31.2945 56.6459 29.514 56.4827 28.2992C56.3679 27.4557 55.4304 26.9986 54.6805 27.403L52.8378 28.3968L42.374 20.9779" stroke="black" stroke-width="1.5" stroke-miterlimit="10" stroke-linecap="round" stroke-linejoin="round"/>
<path d="M12.237 40.1703C12.1068 40.2062 11.9715 40.2202 11.8367 40.2117C8.47628 39.9983 7.24819 38.6367 6.8159 37.4903C6.5158 36.694 7.12473 35.846 7.97555 35.846H10.07L17.4405 15.0042" stroke="black" stroke-width="1.5" stroke-miterlimit="10" stroke-linecap="round" stroke-linejoin="round"/>
<path d="M32.2856 62.7311L34.2647 47.5257" stroke="black" stroke-width="1.5" stroke-miterlimit="10" stroke-linecap="round" stroke-linejoin="round"/>
<path d="M28.1259 45.1888L29.1508 62.7311" stroke="black" stroke-width="1.5" stroke-miterlimit="10" stroke-linecap="round" stroke-linejoin="round"/>
<path d="M24.7017 62.7311L21.2222 42.2742" stroke="black" stroke-width="1.5" stroke-miterlimit="10" stroke-linecap="round" stroke-linejoin="round"/>
<path d="M23.912 38.104C25.8458 39.0642 27.0596 41.1068 26.9181 43.3208C26.8996 43.6106 26.9737 43.8987 27.1296 44.1437C27.2856 44.3886 27.5153 44.5776 27.7857 44.6835L34.1467 47.1729C36.2825 48.0087 37.6327 50.1293 37.4864 52.4181C37.4688 52.6948 37.5355 52.9705 37.6779 53.2085C37.8203 53.4465 38.0316 53.6356 38.2838 53.7509L40.6195 54.8182" stroke="black" stroke-width="1.5" stroke-miterlimit="10" stroke-linecap="round" stroke-linejoin="round"/>
<path d="M46.9434 40.3972C45.3267 35.7857 42.9429 31.2565 39.4281 28.0342" stroke="black" stroke-width="1.5" stroke-miterlimit="10" stroke-linecap="round" stroke-linejoin="round"/>
<path d="M44.4794 56.5821L48.2902 58.3235C49.2364 58.7559 50.3005 58.018 50.2254 56.9806C50.0307 54.292 49.5175 49.5401 48.1764 44.4422" stroke="black" stroke-width="1.5" stroke-miterlimit="10" stroke-linecap="round" stroke-linejoin="round"/>
<path d="M26.9182 43.3207L27.3824 36.0573" stroke="black" stroke-width="1.5" stroke-miterlimit="10" stroke-linecap="round" stroke-linejoin="round"/>
<path d="M37.4864 52.418L38.0127 44.1807C38.0127 44.1807 38.6425 38.0741 36.8762 33.4781" stroke="black" stroke-width="1.5" stroke-miterlimit="10" stroke-linecap="round" stroke-linejoin="round"/>
<path d="M22.8424 19.0433C18.4943 18.2723 15.7215 13.6728 17.3586 9.34837C17.6258 8.64258 18.1015 8.03484 18.7224 7.60595C19.3434 7.17706 20.0802 6.94734 20.8349 6.94734" stroke="black" stroke-width="1.5" stroke-miterlimit="10" stroke-linecap="round" stroke-linejoin="round"/>
<path d="M35.211 6.94666H33.2749C31.9042 6.94666 30.7928 5.8355 30.7928 4.46463V1.55424" stroke="black" stroke-width="1.5" stroke-miterlimit="10" stroke-linecap="round" stroke-linejoin="round"/>
<path d="M25.7526 1.55432V4.4647C25.7526 5.83545 24.6413 6.94673 23.2704 6.94673H20.9585C20.844 6.94673 20.7306 6.96928 20.6249 7.0131C20.5191 7.05693 20.4229 7.12116 20.342 7.20213C20.261 7.2831 20.1968 7.37923 20.153 7.48502C20.1092 7.59082 20.0867 7.7042 20.0867 7.81871C20.0867 9.55 21.4902 10.9535 23.2216 10.9535H33.3241C33.5268 10.9535 33.7249 10.9343 33.9169 10.8976" stroke="black" stroke-width="1.5" stroke-miterlimit="10" stroke-linecap="round" stroke-linejoin="round"/>
<path d="M35.4575 9.12341C34.0544 11.3847 31.1588 14.4474 25.1886 17.6523C20.1326 20.3666 16.9073 25.8308 14.8685 31.2296" stroke="black" stroke-width="1.5" stroke-miterlimit="10" stroke-linecap="round" stroke-linejoin="round"/>
<path d="M13.5188 35.3387C12.5339 38.8074 12.0067 41.9216 11.7448 43.8344C11.6219 44.7315 12.5054 45.4314 13.3512 45.1084L22.2972 41.6916C22.5227 41.6055 22.7168 41.4529 22.8537 41.2541C22.9907 41.0553 23.064 40.8195 23.0639 40.5781C23.0639 38.5819 24.3546 36.8147 26.2561 36.2072L31.9198 34.3978C32.1605 34.3209 32.3706 34.1695 32.5197 33.9655C32.6688 33.7614 32.7491 33.5152 32.7492 33.2625C32.7492 31.0553 34.2743 29.1411 36.4257 28.6482L42.4384 27.2706C42.7404 27.2015 43.0036 27.0174 43.1722 26.7574C43.3408 26.4974 43.4015 26.182 43.3415 25.878L40.2776 10.3601" stroke="black" stroke-width="1.5" stroke-miterlimit="10" stroke-linecap="round" stroke-linejoin="round"/>
<path d="M41.3477 7.88518C41.3477 9.57979 39.974 10.9535 38.2794 10.9535C36.5848 10.9535 35.2111 9.57979 35.2111 7.88518C35.2111 6.19057 36.5848 4.81687 38.2794 4.81687C39.974 4.81687 41.3477 6.19057 41.3477 7.88518Z" stroke="black" stroke-width="1.5" stroke-miterlimit="10" stroke-linecap="round" stroke-linejoin="round"/>
<path d="M32.749 33.2626V24.8282C32.749 23.1648 33.0917 21.5193 33.7558 19.9942" stroke="black" stroke-width="1.5" stroke-miterlimit="10" stroke-linecap="round" stroke-linejoin="round"/>
<path d="M23.0638 40.5784V33.3937C23.0638 33.3937 22.7488 25.3119 26.2259 21.7822" stroke="black" stroke-width="1.5" stroke-miterlimit="10" stroke-linecap="round" stroke-linejoin="round"/>
<path d="M38.2797 10.9534C38.2797 10.9534 39.2397 18.6047 37.8326 23.6266" stroke="black" stroke-width="1.5" stroke-miterlimit="10" stroke-linecap="round" stroke-linejoin="round"/>
<path d="M36.459 10.9537C36.459 10.9537 36.2242 12.7176 35.7565 14.4631" stroke="black" stroke-width="1.5" stroke-miterlimit="10" stroke-linecap="round" stroke-linejoin="round"/>
<path d="M19.6152 17.8307L17.6 25.4438" stroke="black" stroke-width="1.5" stroke-miterlimit="10" stroke-linecap="round" stroke-linejoin="round"/>
</g>
</svg>
