<svg width="76" height="76" viewBox="0 0 76 76" fill="none" xmlns="http://www.w3.org/2000/svg">
<g clip-path="url(#clip0_454_662)">
<path d="M29.9802 26.5461C28.2398 25.8889 26.3194 25.8889 24.5789 26.5461C24.3063 26.649 24.0857 26.856 23.9657 27.1215C23.8457 27.387 23.8361 27.6893 23.939 27.9619C24.0419 28.2345 24.2489 28.4551 24.5144 28.5751C24.7799 28.6951 25.0822 28.7047 25.3548 28.6018C25.9578 28.3738 26.5966 28.2549 27.2413 28.2507C27.9119 28.2436 28.578 28.3627 29.2046 28.6018C29.3398 28.6539 29.484 28.6787 29.6288 28.6748C29.7737 28.6709 29.9163 28.6383 30.0485 28.5791C30.1807 28.5198 30.2999 28.435 30.3992 28.3295C30.4985 28.224 30.576 28.0999 30.6271 27.9644C30.6783 27.8288 30.7021 27.6845 30.6972 27.5397C30.6924 27.3949 30.6589 27.2524 30.5988 27.1206C30.5387 26.9888 30.4531 26.8702 30.3469 26.7716C30.2407 26.673 30.1161 26.5963 29.9802 26.5461ZM57.9264 25.2475C57.9654 23.8119 57.485 22.4105 56.5733 21.3009C57.2353 21.2756 57.8618 20.9951 58.3216 20.5181C58.7814 20.0412 59.0388 19.4048 59.0398 18.7423V17.2774C59.039 16.5978 58.7687 15.9462 58.2881 15.4656C57.8075 14.9851 57.156 14.7147 56.4763 14.714H52.4644L48.8322 2.70707C48.4093 1.30375 46.7605 0.495448 45.156 0.904872C41.9169 1.72786 38.5894 2.15272 35.2474 2.17006C31.7368 2.19582 28.2374 1.77152 24.8347 0.907509C23.2232 0.497645 21.5684 1.30521 21.1466 2.7059L17.5138 14.7142H13.5019C12.8223 14.715 12.1707 14.9854 11.6901 15.4659C11.2095 15.9465 10.9392 16.5981 10.9384 17.2777V18.7426C10.9395 19.4047 11.1967 20.0408 11.6561 20.5177C12.1156 20.9945 12.7417 21.2752 13.4033 21.3009C12.4903 22.4098 12.0098 23.8117 12.0505 25.2475C7.18266 30.8001 4.50146 37.9342 4.50733 45.3185C4.50733 61.8708 18.1506 75.8004 34.9893 75.8004C51.5798 75.8004 65.4712 61.895 65.4712 45.3185C65.4771 37.9339 62.7953 30.7996 57.9264 25.2475ZM23.2502 3.34076C23.3048 3.15912 23.7536 2.89955 24.2924 3.03681C27.8767 3.94703 31.563 4.39418 35.261 4.36732C38.7818 4.34884 42.2871 3.90105 45.6995 3.03388C46.2107 2.9035 46.6726 3.15531 46.7288 3.34223L50.1689 14.7141H19.8095L23.2502 3.34076ZM13.1357 18.7426V17.2777C13.1358 17.1806 13.1744 17.0876 13.2431 17.0189C13.3117 16.9502 13.4048 16.9116 13.5019 16.9115L56.4763 16.9112C56.5734 16.9113 56.6665 16.95 56.7351 17.0186C56.8038 17.0873 56.8424 17.1803 56.8425 17.2774V18.7423C56.8424 18.8394 56.8038 18.9324 56.7351 19.0011C56.6665 19.0697 56.5734 19.1084 56.4763 19.1085L13.5019 19.1088C13.4048 19.1087 13.3117 19.07 13.2431 19.0014C13.1744 18.9327 13.1358 18.8397 13.1357 18.7426ZM55.7329 25.0905C55.7332 26.0075 55.4003 26.8934 54.7962 27.5833C54.192 28.2732 53.3578 28.7201 52.4487 28.8408V21.3393C53.3573 21.4616 54.1907 21.909 54.7946 22.5987C55.3985 23.2885 55.7318 24.1737 55.7329 25.0905ZM34.989 46.3483C30.9426 46.3437 27.0632 44.7342 24.202 41.873C21.3408 39.0118 19.7313 35.1325 19.7266 31.0861C19.7266 30.1423 19.731 22.319 19.7266 21.306L50.2513 21.3059V31.0861C50.2467 35.1324 48.6372 39.0117 45.776 41.8729C42.9148 44.7342 39.0355 46.3436 34.9891 46.3483H34.989ZM38.773 48.1313V51.6435C38.773 52.647 38.3743 53.6094 37.6647 54.319C36.9552 55.0286 35.9928 55.4272 34.9893 55.4272C33.9858 55.4272 33.0234 55.0286 32.3138 54.319C31.6042 53.6094 31.2056 52.647 31.2056 51.6435V48.1314C33.6978 48.6836 36.2807 48.6836 38.773 48.1314V48.1313ZM17.5294 21.339V28.8408C16.6203 28.7197 15.7862 28.2727 15.182 27.5827C14.5779 26.8928 14.2448 26.0069 14.2448 25.0899C14.2448 24.1728 14.5779 23.287 15.182 22.597C15.7862 21.9071 16.6203 21.46 17.5294 21.339ZM6.7046 45.3185C6.69921 38.9909 8.82076 32.8451 12.7285 27.8683C13.0099 28.4033 13.3706 28.8927 13.7984 29.3199C14.7962 30.3226 16.1193 30.936 17.5294 31.0495V31.0861C17.5335 34.6666 18.6365 38.1596 20.6893 41.0932C22.7421 44.0269 25.6459 46.2597 29.0083 47.4903V49.6405L15.4588 57.0201C13.7734 57.9445 12.3919 59.3374 11.4815 61.0304C8.36137 56.385 6.69815 50.9144 6.7046 45.3185ZM34.9893 73.6032C30.764 73.6035 26.5925 72.6558 22.7821 70.8299C18.9717 69.0041 15.6196 66.3465 12.9727 63.0531C13.6189 61.3038 14.875 59.8467 16.5098 58.9497L29.0298 52.1309C29.1514 53.6279 29.832 55.0243 30.9362 56.0425C32.0404 57.0606 33.4873 57.6259 34.9893 57.6259C36.4912 57.6259 37.9381 57.0606 39.0423 56.0425C40.1465 55.0243 40.8271 53.6279 40.9487 52.1309L53.4687 58.9497C55.1036 59.8467 56.3596 61.3038 57.0059 63.0531C54.3589 66.3465 51.0068 69.0041 47.1964 70.8299C43.386 72.6558 39.2145 73.6035 34.9893 73.6032ZM58.4971 61.0303C57.5866 59.3373 56.205 57.9444 54.5196 57.0201L40.9702 49.6405V47.4901C44.3326 46.2595 47.2362 44.0266 49.289 41.0931C51.3417 38.1595 52.4446 34.6665 52.4487 31.0861V31.0495C53.8584 30.9358 55.1812 30.3224 56.1787 29.3199C56.6066 28.8927 56.9674 28.4031 57.2489 27.868C60.9279 32.5575 63.0298 38.2903 63.254 44.2466C63.4781 50.2028 61.8131 56.0774 58.4971 61.0303ZM46.0392 27.9616C46.142 27.6889 46.1323 27.3867 46.0123 27.1212C45.8922 26.8557 45.6716 26.6488 45.399 26.5459C43.6586 25.8888 41.7382 25.8888 39.9977 26.5459C39.7251 26.6488 39.5045 26.8558 39.3845 27.1213C39.2645 27.3868 39.2548 27.6891 39.3577 27.9617C39.4606 28.2343 39.6676 28.4549 39.9331 28.5749C40.1986 28.6949 40.5009 28.7046 40.7735 28.6017C41.3766 28.3736 42.0155 28.2547 42.6602 28.2506C43.3309 28.2433 43.9969 28.3624 44.6234 28.6017C44.7584 28.6527 44.9021 28.6765 45.0463 28.672C45.1905 28.6674 45.3324 28.6344 45.4639 28.575C45.5954 28.5155 45.7139 28.4308 45.8126 28.3255C45.9113 28.2203 45.9883 28.0966 46.0392 27.9616ZM39.0605 37.4183C38.8056 37.2773 38.505 37.2432 38.225 37.3238C37.945 37.4043 37.7085 37.5927 37.5674 37.8476C37.3152 38.3044 36.9463 38.6859 36.4982 38.9533C36.0502 39.2206 35.5392 39.3641 35.0175 39.3692C34.4958 39.3742 33.9821 39.2406 33.529 38.9819C33.0759 38.7233 32.6996 38.3489 32.4387 37.8972C32.3675 37.7703 32.2718 37.6589 32.1571 37.5693C32.0425 37.4798 31.9112 37.4139 31.7709 37.3755C31.6306 37.337 31.4841 37.3269 31.3398 37.3455C31.1955 37.3642 31.0564 37.4113 30.9305 37.4842C30.8046 37.557 30.6944 37.6542 30.6063 37.7699C30.5183 37.8857 30.4541 38.0178 30.4175 38.1586C30.3809 38.2994 30.3726 38.4461 30.3931 38.5901C30.4136 38.7341 30.4625 38.8726 30.537 38.9975C30.9927 39.786 31.6496 40.4392 32.4405 40.8905C33.2315 41.3419 34.128 41.5751 35.0386 41.5663C35.9492 41.5576 36.8412 41.3072 37.6233 40.8407C38.4054 40.3742 39.0496 39.7084 39.49 38.9114C39.631 38.6565 39.665 38.3559 39.5845 38.0759C39.5039 37.7959 39.3155 37.5593 39.0605 37.4183Z" fill="black"/>
</g>
<defs>
<clipPath id="clip0_454_662">
<rect width="75" height="75" fill="white" transform="translate(0.266602 0.800415)"/>
</clipPath>
</defs>
</svg>
